<svg xmlns="http://www.w3.org/2000/svg" viewBox="0 0 74.54 55"><defs><style>.cls-1{fill:#fff;}.cls-2{fill:#ae2b36;}.cls-3{fill:#153772;}.cls-4{fill:#b1b1b1;}.cls-5{fill:#535353;}</style></defs><title>Hydrovac Icon</title><g id="Layer_2" data-name="Layer 2"><g id="Layer_2-2" data-name="Layer 2"><g id="Hydrovac_Icon" data-name="Hydrovac Icon"><path class="cls-1" d="M60.32,52.5A7.09,7.09,0,0,1,54,48.66H30.14a7.11,7.11,0,0,1-12.63,0h-.6a3.28,3.28,0,0,1-3.27-3.27V20.8c0-3,4.07-5,8.19-6.21l-9.72-1.48V48.66H2.5V8.28A5.77,5.77,0,0,1,9.28,2.59L33.23,6.81A5.81,5.81,0,0,1,38,12.54v.38H46.5a7.57,7.57,0,0,1,1.13.09,7.9,7.9,0,0,1,6.74,7.79v1.34h9.8a3.28,3.28,0,0,1,2.4,1.06c1.79,1.94,3.94,4.78,3.94,7.21v2.22A3.26,3.26,0,0,1,72,35.4v10a3.27,3.27,0,0,1-3.26,3.27H66.64A7.09,7.09,0,0,1,60.32,52.5Z"></path><path class="cls-1" d="M8.27,5a3.66,3.66,0,0,1,.57,0l24,4.22a3.32,3.32,0,0,1,2.74,3.27v2.88h11a6.32,6.32,0,0,1,.76.06,5.39,5.39,0,0,1,4.61,5.32v3.84h12.3a.77.77,0,0,1,.56.25c.55.59,3.28,3.65,3.28,5.52v4.22h.77a.77.77,0,0,1,.76.77v10a.77.77,0,0,1-.76.77H64.86a4.6,4.6,0,0,1-9.08,0H28.37a4.61,4.61,0,0,1-9.09,0H16.91a.78.78,0,0,1-.77-.77V20.8c0-2.7,10.85-4.94,13.45-5.32a2.6,2.6,0,0,0-2.22-2.57l-16.2-2.47-.23,0a1.34,1.34,0,0,0-1.33,1.33V46.16H5V8.28A3.28,3.28,0,0,1,8.27,5m0-5h0A8.28,8.28,0,0,0,0,8.28V51.16H14.61v-.48a5.71,5.71,0,0,0,1.48.42,9.63,9.63,0,0,0,15.43.06H52.63a9.63,9.63,0,0,0,15.39,0h.76a5.77,5.77,0,0,0,5.76-5.77v-10A5.77,5.77,0,0,0,73,31.48V30.41c0-2.6-1.55-5.6-4.61-8.91a5.78,5.78,0,0,0-4.23-1.86H56.81A10.46,10.46,0,0,0,48,10.53a11,11,0,0,0-1.47-.11H40.27a8.33,8.33,0,0,0-6.61-6.08L9.71.13A7.79,7.79,0,0,0,8.27,0Z"></path><path class="cls-2" d="M50.33,45.39v-20a.78.78,0,0,1,.77-.77h.77V20.8a5.39,5.39,0,0,0-4.61-5.32,6.32,6.32,0,0,0-.76-.06H30.35a6.32,6.32,0,0,0-.76.06c-2.6.38-13.45,2.62-13.45,5.32v.77h5.47v1.54H16.14v2.3h5.47V27H16.14v2.3h5.47v1.54H16.14V33.1h5.47v1.53H16.14V45.39a.78.78,0,0,0,.77.77h2.37a4.9,4.9,0,0,1-.07-.77,4.62,4.62,0,0,1,9.23,0,4.9,4.9,0,0,1-.07.77H51.1A.78.78,0,0,1,50.33,45.39Z"></path><path class="cls-3" d="M23.83,40.78a4.62,4.62,0,0,0-4.62,4.61,4.9,4.9,0,0,0,.07.77,4.61,4.61,0,0,0,9.09,0,4.9,4.9,0,0,0,.07-.77A4.62,4.62,0,0,0,23.83,40.78Z"></path><path class="cls-3" d="M50.33,25.41v10a.78.78,0,0,1,.77-.77h.77V26.18h12c1.17,1.31,2.65,3.34,2.65,4.23v4.22H68V30.41c0-1.87-2.73-4.93-3.28-5.52a.77.77,0,0,0-.56-.25H51.1A.78.78,0,0,0,50.33,25.41Z"></path><path class="cls-1" d="M63.82,26.18h-12v8.45h14.6V30.41C66.47,29.52,65,27.49,63.82,26.18Z"></path><path class="cls-4" d="M68.78,34.63H51.1a.78.78,0,0,0-.77.77v10a.78.78,0,0,0,.77.77h4.68a4.9,4.9,0,0,1-.07-.77,4.61,4.61,0,0,1,9.22,0,3.94,3.94,0,0,1-.07.77h3.92a.77.77,0,0,0,.76-.77v-10A.77.77,0,0,0,68.78,34.63Zm-7.69,3.84H58V36.94h3.07Z"></path><path class="cls-3" d="M60.32,40.78a4.62,4.62,0,0,0-4.61,4.61,4.9,4.9,0,0,0,.07.77,4.6,4.6,0,0,0,9.08,0,3.94,3.94,0,0,0,.07-.77A4.61,4.61,0,0,0,60.32,40.78Z"></path><rect class="cls-1" x="16.14" y="21.57" width="5.47" height="1.54"></rect><rect class="cls-1" x="16.14" y="29.25" width="5.47" height="1.54"></rect><rect class="cls-1" x="16.14" y="25.41" width="5.47" height="1.54"></rect><rect class="cls-1" x="16.14" y="33.1" width="5.47" height="1.54"></rect><rect class="cls-5" x="58.02" y="36.94" width="3.07" height="1.54"></rect><path class="cls-3" d="M32.8,9.27l-24-4.22A3.28,3.28,0,0,0,5,8.28V46.16H9.61V11.75a1.34,1.34,0,0,1,1.56-1.31l16.2,2.47a2.6,2.6,0,0,1,2.22,2.57h0a6.32,6.32,0,0,1,.76-.06h5.19V12.54A3.32,3.32,0,0,0,32.8,9.27Z"></path></g></g></g></svg>