<svg xmlns="http://www.w3.org/2000/svg" viewBox="0 0 32.14 60.6"><defs><style>.cls-1{fill:#153772;}.cls-2{fill:#fff;}.cls-3{fill:#ae2b36;}</style></defs><title>Steam Cleaning Icon</title><g id="Layer_2" data-name="Layer 2"><g id="Layer_2-2" data-name="Layer 2"><g id="Steam_Cleaning_Icon" data-name="Steam Cleaning Icon"><path class="cls-1" d="M22.83,44.16l-5.3-9.91h0l0-.06-1.43-2.67L9.32,44.16A7.76,7.76,0,0,0,15.78,55.6h.58A7.76,7.76,0,0,0,22.83,44.16Z"></path><path class="cls-2" d="M29.43,30.75a8.7,8.7,0,0,0,0-12.64,5.61,5.61,0,0,0-4.88-8.35h0a5.55,5.55,0,0,0-2.75.73l-.41.26a9.58,9.58,0,0,0-1.24-1.31A5.6,5.6,0,0,0,16.05,0h0a5.6,5.6,0,0,0-3.28,1.06,10.27,10.27,0,0,0-4.29,8.4c0,.13,0,.26,0,.39a5.73,5.73,0,0,0-.92-.09,5.73,5.73,0,0,0-2.77.73A9.09,9.09,0,0,0,0,18.37a8.79,8.79,0,0,0,2.47,6.07,8.75,8.75,0,0,0-2.45,6,9.07,9.07,0,0,0,4.83,7.9A5.52,5.52,0,0,0,6.42,39L4.91,41.8a12.76,12.76,0,0,0,.21,12.47,12.53,12.53,0,0,0,10.49,6.32h.92A12.54,12.54,0,0,0,27,54.27a12.78,12.78,0,0,0,.21-12.47L25.72,39A5.59,5.59,0,0,0,30,32,6,6,0,0,0,29.43,30.75Zm-5.2-15.91a.67.67,0,0,1,.3-.08.59.59,0,0,1,.52.31.6.6,0,0,1-.22.82,3.61,3.61,0,0,0-1.18,1,11.47,11.47,0,0,0-.16-1.55A5.74,5.74,0,0,1,24.23,14.84ZM15.7,5.11A.66.66,0,0,1,16.05,5a.61.61,0,0,1,.49.25.6.6,0,0,1-.13.84,4.17,4.17,0,0,0,0,6.76,5.31,5.31,0,0,1,1.5,1.64A8.45,8.45,0,0,0,17.28,16a4.07,4.07,0,0,0-1.54-2.16,5.39,5.39,0,0,1,0-8.75Zm.74,16.48h0a4.12,4.12,0,0,0-1.34,1.62,8.7,8.7,0,0,0-.39-1.62,5.65,5.65,0,0,1,1-1A4.07,4.07,0,0,0,17,19.17a8.21,8.21,0,0,0,.32,1.64A5.39,5.39,0,0,1,16.44,21.59Zm.12,7.61a.61.61,0,0,1-.84.14A5.54,5.54,0,0,1,14.43,28,8.56,8.56,0,0,0,15,26.43a4.12,4.12,0,0,0,1.48,1.93A.6.6,0,0,1,16.56,29.2ZM7.28,14.84a.67.67,0,0,1,.3-.08.59.59,0,0,1,.52.31.6.6,0,0,1-.23.82A2.94,2.94,0,0,0,6.2,18.38a2.94,2.94,0,0,0,1.67,2.49A5.36,5.36,0,0,1,9,21.74a9.23,9.23,0,0,0-.35,1.49A3.42,3.42,0,0,0,7.33,22,4.13,4.13,0,0,1,5,18.38,4.1,4.1,0,0,1,7.28,14.84Zm.84,19a.6.6,0,0,1-.52.3A.66.66,0,0,1,7.3,34a3.89,3.89,0,0,1,0-7.09,3.6,3.6,0,0,0,1.22-1.08,10.81,10.81,0,0,0,.25,1.51A6,6,0,0,1,7.9,28a2.92,2.92,0,0,0-1.68,2.49A2.94,2.94,0,0,0,7.89,33,.6.6,0,0,1,8.12,33.8Zm8.24,21.8h-.58A7.76,7.76,0,0,1,9.32,44.16l5.29-9.91,1.46-2.73,1.46,2.73,5.3,9.91A7.76,7.76,0,0,1,16.36,55.6ZM24.85,28a2.7,2.7,0,0,0,0,5,.59.59,0,0,1,.22.82.6.6,0,0,1-.52.3.59.59,0,0,1-.29-.07,3.89,3.89,0,0,1,0-7.09,2.93,2.93,0,0,0,1.68-2.5A2.93,2.93,0,0,0,24.28,22a5.15,5.15,0,0,1-1.29-1,12,12,0,0,0,.44-1.44,3.3,3.3,0,0,0,1.39,1.38,4.11,4.11,0,0,1,2.32,3.58A4.09,4.09,0,0,1,24.85,28Z"></path><path class="cls-3" d="M16.43,21.6a5.37,5.37,0,0,0,0-8.75,4.17,4.17,0,0,1,0-6.76.61.61,0,0,0-.71-1,5.39,5.39,0,0,0,0,8.75,4.16,4.16,0,0,1,0,6.76A5.31,5.31,0,0,0,13.5,25a5.17,5.17,0,0,0,.27,1.67l0,.11a4.66,4.66,0,0,0,.4.88,1,1,0,0,1,.08.14,5.35,5.35,0,0,0,.58.77l.1.11a5.5,5.5,0,0,0,.76.68.61.61,0,0,0,.84-.14.6.6,0,0,0-.13-.84,4.17,4.17,0,0,1,0-6.76Z"></path><path class="cls-3" d="M24.85,28a4.09,4.09,0,0,0,2.29-3.54,4.11,4.11,0,0,0-2.32-3.58,2.93,2.93,0,0,1-1.67-2.49,3,3,0,0,1,1.68-2.49.6.6,0,0,0-.6-1.05A4.12,4.12,0,0,0,22,18.38,4.13,4.13,0,0,0,24.28,22a2.93,2.93,0,0,1,1.66,2.49,2.93,2.93,0,0,1-1.68,2.5,3.89,3.89,0,0,0,0,7.09.59.59,0,0,0,.29.07.6.6,0,0,0,.52-.3.59.59,0,0,0-.22-.82,2.7,2.7,0,0,1,0-5Z"></path><path class="cls-3" d="M7.6,34.1A.66.66,0,0,1,7.3,34a3.89,3.89,0,0,1,0-7.09A2.93,2.93,0,0,0,9,24.44,3,3,0,0,0,7.33,22,4.13,4.13,0,0,1,5,18.38a4.1,4.1,0,0,1,2.28-3.54.6.6,0,1,1,.59,1.05A2.94,2.94,0,0,0,6.2,18.38a2.94,2.94,0,0,0,1.67,2.49,4.13,4.13,0,0,1,2.32,3.58A4.09,4.09,0,0,1,7.9,28a2.92,2.92,0,0,0-1.68,2.49A2.94,2.94,0,0,0,7.89,33,.6.6,0,0,1,7.6,34.1Z"></path></g></g></g></svg>